<svg width="140" height="32" viewBox="0 0 140 32" fill="none" xmlns="http://www.w3.org/2000/svg">
<g clip-path="url(#clip0_5834_51298)">
<path d="M68.9309 31.5C77.5052 31.5 84.4561 24.5604 84.4561 16C84.4561 7.43959 77.5052 0.5 68.9309 0.5C60.3566 0.5 53.4058 7.43959 53.4058 16C53.4058 24.5604 60.3566 31.5 68.9309 31.5Z" fill="#157F18"/>
<path d="M7.3406 8.10596H11.9035L19.221 26.4069H14.4772L13.0072 22.6384H6.2416L4.77162 26.4069H0L7.3406 8.10596ZM11.8525 19.0735L9.62207 12.9208L7.36842 19.0735H11.8525Z" fill="#157F18"/>
<path d="M23.8209 25.6478C22.3092 24.8793 21.1407 23.7775 20.3199 22.3377C19.4991 20.8978 19.0864 19.208 19.0864 17.2728C19.0864 15.3377 19.4945 13.6478 20.3199 12.208C21.1407 10.7682 22.3092 9.66173 23.8209 8.88395C25.3327 8.10617 27.0855 7.71729 29.0795 7.71729C30.4057 7.71729 31.5835 7.84229 32.6083 8.09691C33.6331 8.35154 34.5791 8.75432 35.4555 9.31451V13.7127C34.6858 13.1015 33.8186 12.6617 32.8448 12.3886C31.8757 12.1201 30.7581 11.9812 29.5014 11.9812C28.4164 11.9812 27.4518 12.1941 26.6032 12.6247C25.7546 13.0506 25.0869 13.6664 24.5954 14.4719C24.1038 15.2728 23.8627 16.208 23.8627 17.2728C23.8627 18.9302 24.3496 20.2404 25.3187 21.1988C26.2879 22.1571 27.6049 22.6386 29.265 22.6386C30.1924 22.6386 30.9714 22.4812 31.5974 22.1664V19.2358H28.792V15.9904H36.0027V25.1015C34.134 26.2358 31.8247 26.8052 29.0795 26.8052C27.0855 26.8052 25.3327 26.421 23.8209 25.6525V25.6478Z" fill="#157F18"/>
<path d="M37.8389 8.10596H46.0744C48.2261 8.10596 49.9047 8.64762 51.1243 9.73096C52.3392 10.8143 52.9467 12.3652 52.9467 14.3884C52.9467 15.7495 52.6499 16.9115 52.0564 17.8698C51.4628 18.8282 50.6235 19.5458 49.5384 20.018L52.789 26.4069H48.0174L45.1053 20.6754H42.4806V26.4069H37.8389V8.10596ZM45.2583 16.7726C46.1857 16.7726 46.8998 16.5921 47.4099 16.2356C47.92 15.8791 48.1704 15.2634 48.1704 14.3884C48.1704 13.5134 47.92 12.856 47.4238 12.518C46.9277 12.18 46.2043 12.0087 45.2583 12.0087H42.4806V16.7726H45.2583Z" fill="#157F18"/>
<path d="M86.6348 8.90234H89.3104V24.9764H98.594V27.2033H86.6348V8.90234Z" fill="#157F18"/>
<path d="M100.955 8.90234H103.653V27.2033H100.955V8.90234Z" fill="#157F18"/>
<path d="M107.062 8.90234H109.608L118.942 22.6986V8.90234H121.641V27.2033H119.072L109.738 13.407V27.2033H107.062V8.90234Z" fill="#157F18"/>
<path d="M125.053 8.90234H127.729V27.2033H125.053V8.90234ZM127.859 17.8838L136.224 8.90234H139.475L131.109 17.8838L139.999 27.2033H136.748L127.859 17.8838Z" fill="#157F18"/>
<path d="M67.4665 17.2356L66.4741 19.1568L65.9733 20.1198L67.9024 21.1152L68.3986 20.1522L69.3955 18.2309L67.4665 17.2356ZM70.3276 21.1476L69.3306 23.0735C68.9133 23.8744 68.2826 24.4115 67.4294 24.68C66.5762 24.9531 65.7461 24.8791 64.9439 24.467C64.1417 24.0504 63.6037 23.4161 63.3348 22.5643C63.0612 21.717 63.1354 20.8883 63.5481 20.0874L64.5451 18.1615L62.6207 17.1707L61.6237 19.092C60.9328 20.4207 60.8168 21.8004 61.2713 23.2217C61.7211 24.643 62.616 25.6985 63.9469 26.3883C65.2824 27.0781 66.6596 27.1939 68.0832 26.7402C69.5115 26.2865 70.5687 25.3976 71.255 24.0643L72.252 22.143L70.3276 21.1476ZM69.9613 12.4254L69.4605 13.3883L68.4635 15.3143L67.4665 17.2356L66.4741 19.1568L65.9733 20.1198L67.9024 21.1152L68.3986 20.1522L69.3955 18.2309L70.3925 16.305L71.3895 14.3837L71.8857 13.4207L69.9613 12.4254ZM69.9613 12.4254L69.4605 13.3883L68.4635 15.3143L70.3925 16.305L71.3895 14.3837L71.8857 13.4207L69.9613 12.4254ZM69.9613 12.4254L69.4605 13.3883L68.4635 15.3143L70.3925 16.305L71.3895 14.3837L71.8857 13.4207L69.9613 12.4254ZM76.5924 10.3189C76.1379 8.89759 75.2476 7.84203 73.9121 7.15222C72.5813 6.4624 71.1994 6.34666 69.7758 6.80036C68.3522 7.25407 67.2949 8.14296 66.604 9.47629L65.6116 11.3976L67.536 12.393L68.533 10.4717C68.9457 9.66611 69.581 9.1337 70.4343 8.86055C71.2875 8.59203 72.1129 8.66148 72.9151 9.07814C73.7174 9.49018 74.2553 10.1244 74.5289 10.9763C74.7978 11.8281 74.7283 12.6522 74.3109 13.4531L73.3139 15.3791L75.243 16.3744L76.24 14.4485C76.9263 13.1198 77.0468 11.7402 76.5924 10.3189ZM69.9613 12.4254L69.4605 13.3883L68.4635 15.3143L70.3925 16.305L71.3895 14.3837L71.8857 13.4207L69.9613 12.4254Z" fill="#FFDF4E"/>
<path d="M72.3168 17.3003L70.3924 16.3049L68.4633 15.3142L67.4664 17.2355L69.3954 18.2309L71.3245 19.2262L72.2843 19.7216L73.2813 17.8003L72.3168 17.3003ZM72.3168 17.3003L70.3924 16.3049L68.4633 15.3142L67.4664 17.2355L69.3954 18.2309L71.3245 19.2262L72.2843 19.7216L73.2813 17.8003L72.3168 17.3003ZM72.3168 17.3003L70.3924 16.3049L68.4633 15.3142L67.4664 17.2355L69.3954 18.2309L71.3245 19.2262L72.2843 19.7216L73.2813 17.8003L72.3168 17.3003ZM72.3168 17.3003L70.3924 16.3049L68.4633 15.3142L66.5389 14.3142L65.5744 13.8188L64.5774 15.7401L65.5419 16.2401L67.4664 17.2355L69.3954 18.2309L71.3245 19.2262L72.2843 19.7216L73.2813 17.8003L72.3168 17.3003ZM78.9155 17.6151C78.4657 16.1938 77.5707 15.1383 76.2398 14.4485L74.3108 13.4531L73.3138 15.379L75.2428 16.3744C76.0451 16.7864 76.583 17.4207 76.8519 18.2725C77.1255 19.1197 77.0513 19.9485 76.6386 20.7494C76.2213 21.5503 75.5906 22.0873 74.7374 22.3605C73.8842 22.629 73.0541 22.5596 72.2519 22.1429L70.3275 21.1475L69.3305 23.0735L71.2549 24.0642C72.5904 24.754 73.9676 24.8744 75.3912 24.4207C76.8195 23.967 77.8767 23.0735 78.563 21.7447C79.254 20.416 79.3699 19.0364 78.9155 17.6151ZM71.3245 19.2262L72.2843 19.7216L73.2813 17.8003L72.3168 17.3003L70.3924 16.3049L68.4633 15.3142L66.5389 14.3142L65.5744 13.8188L64.5774 15.7401L65.5419 16.2401L67.4664 17.2355L69.3954 18.2309L71.3245 19.2262ZM72.3168 17.3003L70.3924 16.3049L68.4633 15.3142L67.4664 17.2355L69.3954 18.2309L71.3245 19.2262L72.2843 19.7216L73.2813 17.8003L72.3168 17.3003ZM72.3168 17.3003L70.3924 16.3049L68.4633 15.3142L67.4664 17.2355L69.3954 18.2309L71.3245 19.2262L72.2843 19.7216L73.2813 17.8003L72.3168 17.3003ZM72.3168 17.3003L70.3924 16.3049L68.4633 15.3142L67.4664 17.2355L69.3954 18.2309L71.3245 19.2262L72.2843 19.7216L73.2813 17.8003L72.3168 17.3003ZM72.3168 17.3003L70.3924 16.3049L68.4633 15.3142L66.5389 14.3142L65.5744 13.8188L64.5774 15.7401L65.5419 16.2401L67.4664 17.2355L69.3954 18.2309L71.3245 19.2262L72.2843 19.7216L73.2813 17.8003L72.3168 17.3003ZM66.5389 14.3142L65.5744 13.8188L64.5774 15.7401L65.5419 16.2401L67.4664 17.2355L68.4633 15.3142L66.5389 14.3142ZM66.5389 14.3142L65.5744 13.8188L64.5774 15.7401L65.5419 16.2401L67.4664 17.2355L68.4633 15.3142L66.5389 14.3142ZM66.6038 9.47623C65.273 8.78641 63.8958 8.67067 62.4675 9.11975C61.0439 9.57345 59.9866 10.467 59.2957 11.7957C58.6094 13.129 58.4888 14.504 58.9433 15.9253C59.3977 17.3466 60.2881 18.4022 61.6235 19.092L63.548 20.0873L64.545 18.1614L62.6205 17.1707C61.8183 16.754 61.2804 16.1197 61.0068 15.2679C60.7379 14.4207 60.8074 13.592 61.2248 12.791C61.6375 11.9901 62.2728 11.4531 63.126 11.1846C63.9792 10.9114 64.8046 10.9855 65.6069 11.3975H65.6115L67.5359 12.3929L68.5329 10.4716L66.6038 9.47623ZM66.5389 14.3142L65.5744 13.8188L64.5774 15.7401L65.5419 16.2401L67.4664 17.2355L68.4633 15.3142L66.5389 14.3142ZM66.5389 14.3142L65.5744 13.8188L64.5774 15.7401L65.5419 16.2401L67.4664 17.2355L68.4633 15.3142L66.5389 14.3142ZM66.5389 14.3142L65.5744 13.8188L64.5774 15.7401L65.5419 16.2401L67.4664 17.2355L68.4633 15.3142L66.5389 14.3142Z" fill="#FFDF4E"/>
</g>
<defs>
<clipPath id="clip0_5834_51298">
<rect width="140" height="31" fill="white" transform="translate(0 0.5)"/>
</clipPath>
</defs>
</svg>
